<?xml version="1.0" encoding="utf-8"?>
<!-- Generator: Adobe Illustrator 23.0.3, SVG Export Plug-In . SVG Version: 6.00 Build 0)  -->
<svg version="1.1" id="Слой_1" xmlns="http://www.w3.org/2000/svg" xmlns:xlink="http://www.w3.org/1999/xlink" x="0px" y="0px"
	 viewBox="0 0 512 512" style="enable-background:new 0 0 512 512;" xml:space="preserve">
<style type="text/css">
	.st0{fill:none;stroke:#0064AA;stroke-width:26;stroke-miterlimit:10;}
	.st1{fill:#0064AA;}
</style>
<circle class="st0" cx="256" cy="255.7" r="243"/>
<g>
	<g>
		<path class="st1" d="M255,140c-63.4,0-115,51.6-115,115s51.6,115,115,115s115-51.6,115-115S318.4,140,255,140z M241.6,302.2
			l-43.3-42.8l21.1-21.3l22,21.8l49.1-49.4l21.3,21.2L241.6,302.2z"/>
	</g>
</g>
<g>
	<g>
		<path class="st1" d="M436,215.8c-5.2-4.1-7.1-11.1-4.6-17.3c5.4-13.7,4.8-29.7-3.2-43.5s-21.5-22.3-36.1-24.5
			c-6.6-1-11.7-6.1-12.7-12.7c-2.1-14.6-10.7-28.1-24.5-36.1s-29.7-8.6-43.5-3.2c-6.2,2.5-13.2,0.6-17.3-4.6
			C285.1,62.4,270.9,55,255,55s-30.1,7.4-39.2,19c-4.1,5.2-11.1,7.1-17.3,4.6c-13.7-5.4-29.7-4.8-43.5,3.2s-22.3,21.5-24.5,36.1
			c-1,6.6-6.1,11.7-12.7,12.7c-14.5,2.1-28.1,10.6-36,24.4c-7.9,13.8-8.6,29.7-3.2,43.5c2.5,6.2,0.6,13.2-4.6,17.3
			c-11.6,9.1-19,23.3-19,39.2s7.4,30.1,19,39.2c5.2,4.1,7.1,11.1,4.6,17.3c-5.4,13.7-4.8,29.7,3.2,43.5s21.5,22.3,36.1,24.5
			c6.6,1,11.7,6.1,12.7,12.7c2.1,14.6,10.7,28.1,24.5,36.1s29.7,8.6,43.5,3.2c6.2-2.5,13.2-0.6,17.3,4.6c9.2,11.6,23.3,19,39.2,19
			s30.1-7.4,39.2-19c4.1-5.2,11.1-7.1,17.3-4.6c13.7,5.4,29.7,4.8,43.5-3.2s22.3-21.5,24.5-36.1c1-6.6,6.1-11.7,12.7-12.7
			c14.6-2.1,28.1-10.7,36.1-24.5s8.6-29.7,3.2-43.5c-2.5-6.2-0.6-13.2,4.6-17.3c11.6-9.2,19-23.3,19-39.2S447.6,224.9,436,215.8z
			 M255,400c-80,0-145-65-145-145s65-145,145-145s145,65,145,145S335,400,255,400z"/>
	</g>
</g>
</svg>
