<?xml version="1.0" encoding="utf-8"?>
<!-- Generator: Adobe Illustrator 23.0.3, SVG Export Plug-In . SVG Version: 6.00 Build 0)  -->
<svg version="1.1" id="Layer_1" xmlns="http://www.w3.org/2000/svg" xmlns:xlink="http://www.w3.org/1999/xlink" x="0px" y="0px"
	 viewBox="0 0 169.1 169.1" style="enable-background:new 0 0 169.1 169.1;" xml:space="preserve">
<style type="text/css">
	.st0{fill:#39D02A;}
</style>
<g>
	<path class="st0" d="M122.4,0H46.7C20.9,0,0,20.9,0,46.7v75.8c0,25.7,20.9,46.7,46.7,46.7h75.8c25.7,0,46.7-20.9,46.7-46.7V46.7
		C169.1,20.9,148.1,0,122.4,0z M154.1,122.4c0,17.5-14.2,31.7-31.7,31.7H46.7c-17.5,0-31.7-14.2-31.7-31.7V46.7
		C15,29.2,29.2,15,46.7,15h75.8c17.5,0,31.7,14.2,31.7,31.7L154.1,122.4L154.1,122.4z"/>
	<path class="st0" d="M128.9,77c11.9-16.1,9.3-16.4,12.2-21.5h-22.9c0,0-1.6,5.6-2.1,6.6C111.8,71,101.9,84.4,96,85.8
		c-5.9,1.3-5.1-12.5-4.7-18.5c0.3-5.6,0.3-7.5,0.1-8.5c-0.2-1.4-1.4-2.4-2.8-2.6c-2.9-0.4-8.2-0.9-14.1-0.6l-5.3,0.2
		c2.1,4.7,3.5,3.2,4.3,8.6c0.9,6.3,0.5,21.7-5.7,21.7c-10,0-21.2-30-21.6-30.7H25.9l1.9,4.6c14.9,37.3,33.6,54.6,59.1,56.1l3.3,0.1
		l0.2-3.2c0.4-5,2.9-12.1,7.3-12.1c6.5,0,8.4,1.9,12.8,7.2c4.2,5.1,7,8.1,13.7,8.1h17l-2.4-4.9c-3.8-7.6-11.4-14.1-14.4-17.9
		c-1.1-1.4-2.1-3.7-1-6.4C124.2,84.7,126.9,79.7,128.9,77z"/>
</g>
</svg>
